<?xml version="1.0" encoding="UTF-8"?><svg xmlns:inkscape="http://www.inkscape.org/namespaces/inkscape" xmlns:sodipodi="http://sodipodi.sourceforge.net/DTD/sodipodi-0.dtd" xmlns:rdf="http://www.w3.org/1999/02/22-rdf-syntax-ns#" xmlns:cc="http://creativecommons.org/ns#" xmlns:dc="http://purl.org/dc/elements/1.1/" xmlns="http://www.w3.org/2000/svg" class="stroke-cyan-500 stroke-10" version="1.2" xml:space="preserve" width="820.06714" height="620.21472" viewBox="0 0 820.06717 620.21472" baseProfile="tiny-ps"><title>Purple Booth</title><metadata></metadata><defs id="defs6"><clipPath clipPathUnits="userSpaceOnUse" id="clipPath18"><path d="M 0,697 H 1039 V 0 H 0 Z" id="path16"></path></clipPath></defs><g id="g10" transform="matrix(1.3333333,0,0,-1.3333333,-282.63326,924.51551)"><g id="g12"><g id="g14"><g id="g20" transform="translate(634.6698,327.3614)"><path d="m 0,0 c -8.915,-8.915 -23.368,-8.915 -32.283,0 l -94.966,94.966 c -8.915,8.914 -8.915,23.368 0,32.283 l 42.896,42.896 50.381,50.381 c 8.915,8.914 23.368,8.914 32.283,0 L 93.277,125.56 c 8.914,-8.915 8.914,-23.369 0,-32.283 z M 11.241,-72.968 166.245,82.036 c 14.814,14.814 14.814,38.832 0,53.647 L 23.715,278.213 45.703,300.2 c 11.626,11.627 11.626,30.478 0,42.105 -11.627,11.627 -30.478,11.627 -42.105,0 l -48.811,-48.811 -81.245,-81.245 -73.759,-73.759 c -14.814,-14.814 -14.814,-38.833 0,-53.647 L -42.406,-72.968 c 14.814,-14.814 38.833,-14.814 53.647,0" id="path22" fill="#3f123f" fill-opacity="1" fill-rule="nonzero" stroke="none"></path></g><g id="g24" transform="translate(484.7232,327.3041)"><path d="m 0,0 c -8.915,-8.915 -23.368,-8.915 -32.283,0 l -94.966,94.966 c -8.915,8.915 -8.915,23.368 0,32.283 l 50.381,50.381 42.896,42.896 c 8.915,8.914 23.368,8.914 32.283,0 L 93.277,125.56 c 8.914,-8.915 8.914,-23.369 0,-32.283 z M 166.245,135.683 8.434,293.494 c -14.814,14.814 -38.833,14.814 -53.647,0 l -73.759,-73.76 -81.245,-81.244 -48.811,-48.812 c -11.627,-11.626 -11.627,-30.477 0,-42.104 11.627,-11.627 30.477,-11.627 42.104,0 l 21.988,21.988 142.53,-142.53 c 14.814,-14.814 38.833,-14.814 53.647,0 L 166.245,82.036 c 14.814,14.814 14.814,38.833 0,53.647" id="path26" fill="#8e4088" fill-opacity="1" fill-rule="nonzero" stroke="none"></path></g><g id="g28" transform="translate(357.4743,454.553)"><path d="m 0,0 -57.687,-57.687 14.819,-14.819 c 0,0 36.126,66.561 42.868,72.506" id="path30" fill="#702a6c" fill-opacity="1" fill-rule="nonzero" stroke="none"></path></g><g id="g32" transform="translate(658.3846,605.5739)"><path d="m 0,0 -60.586,-60.586 c 0,0 4.293,4.598 6.864,6.089 1.042,0.603 2.005,1.165 2.929,1.57 3.102,1.36 5.53,1.651 7.032,1.819 1.947,0.217 4.491,0.124 7.067,-0.41 1.893,-0.393 4.022,-1.204 5.791,-2.126 2.274,-1.186 3.637,-2.373 3.637,-2.373 0,0 23.159,47.516 27.266,56.017" id="path34" fill="#250528" fill-opacity="1" fill-rule="nonzero" stroke="none"></path></g><g id="g36" transform="translate(583.3828,530.5904)"><path d="m 0,0 -41.546,-41.546 14.82,-14.856 z" id="path38" fill="#702a6c" fill-opacity="1" fill-rule="nonzero" stroke="none"></path></g><g id="g40" transform="translate(585.6985,344.0631)"><path d="m 0,0 -41.546,-41.546 14.82,-14.856 z" id="path42" fill="#250528" fill-opacity="1" fill-rule="nonzero" stroke="none"></path></g><g id="g44" transform="translate(538.4866,391.2615)"><path d="M 0,0 5.097,-5.097 -36.448,-46.642 Z" id="path46" fill="#250528" fill-opacity="1" fill-rule="nonzero" stroke="none"></path></g><g id="g48" transform="translate(536.2076,577.8026)"><path d="M 0,0 5.097,-5.097 -36.449,-46.642 Z" id="path50" fill="#702a6c" fill-opacity="1" fill-rule="nonzero" stroke="none"></path></g><g id="g52" transform="translate(536.7433,483.951)"><path d="M 0,0 -42.078,42.078 9.122,93.279 51.201,51.201 Z" id="path54" fill="#3f123f" fill-opacity="1" fill-rule="nonzero" stroke="none"></path></g></g></g></g></svg>