<?xml version="1.0" encoding="UTF-8"?><svg xmlns="http://www.w3.org/2000/svg" class="stroke-cyan-500 stroke-10" version="1.2" xml:space="preserve" width="820.067" height="620.215" viewBox="0 0 820.067 620.215" baseProfile="tiny-ps"><title>PurpleBooth</title><rect xmlns="http://www.w3.org/2000/svg" width="100%" height="100%" fill="rgba(255, 255, 255, 1)"></rect><path d="M563.592 488.036c-11.887 11.886-31.158 11.886-43.044 0L393.927 361.415c-11.887-11.886-11.887-31.158 0-43.044l57.194-57.195 67.175-67.174c11.886-11.885 31.157-11.885 43.044 0l126.62 126.62c11.886 11.887 11.886 31.16 0 43.045zm14.988 97.29 206.67-206.671c19.752-19.752 19.752-51.776 0-71.53L595.21 117.086l29.32-29.316c15.501-15.503 15.501-40.637 0-56.14-15.503-15.502-40.637-15.502-56.14 0l-65.081 65.081L394.98 205.038l-98.345 98.345c-19.752 19.752-19.752 51.777 0 71.529L507.05 585.326c19.752 19.752 51.778 19.752 71.53 0" fill="#3f123f"></path><path d="M363.663 488.112c-11.887 11.886-31.158 11.886-43.044 0L193.998 361.49c-11.887-11.887-11.887-31.158 0-43.044l67.174-67.175 57.195-57.194c11.886-11.885 31.157-11.885 43.044 0l126.62 126.62c11.886 11.887 11.886 31.16 0 43.045zm221.66-180.91L374.907 96.787c-19.752-19.752-51.777-19.752-71.53 0l-98.344 98.347L96.707 303.459l-65.08 65.082c-15.503 15.502-15.503 40.636 0 56.139 15.502 15.503 40.635 15.503 56.138 0l29.317-29.317 190.04 190.04c19.751 19.751 51.777 19.751 71.529 0L585.322 378.73c19.752-19.752 19.752-51.778 0-71.53" fill="#8e4088"></path><path d="m193.998 318.447-76.916 76.916 19.759 19.758s48.167-88.748 57.157-96.674" fill="#702a6c"></path><path d="m595.211 117.086-80.78 80.781s5.723-6.13 9.151-8.118c1.39-.804 2.674-1.554 3.906-2.094 4.136-1.813 7.373-2.201 9.376-2.425 2.596-.29 5.988-.165 9.422.547 2.524.524 5.363 1.605 7.722 2.834 3.032 1.582 4.849 3.164 4.849 3.164s30.878-63.354 36.354-74.689" fill="#250528"></path><path d="m495.21 217.064-55.395 55.395 19.76 19.808z" fill="#702a6c"></path><path d="M498.296 465.766 442.9 521.161l19.76 19.808zm-62.948-62.931 6.796 6.796-55.393 55.393Z" fill="#250528"></path><path d="m432.31 154.114 6.795 6.796-55.394 55.393Z" fill="#702a6c"></path><path d="m433.023 279.25-56.104-56.104 68.266-68.268 56.105 56.104Z" fill="#3f123f"></path></svg>