<?xml version="1.0" encoding="UTF-8" standalone="no"?>
<svg
   class="stroke-cyan-500 stroke-10"
   version="1.1"
   id="svg2"
   xml:space="preserve"
   width="820.06714"
   height="620.21472"
   viewBox="0 0 820.06717 620.21472"
   sodipodi:docname="Purple Booth Mark.svg"
   inkscape:version="1.1.1 (c3084ef, 2021-09-22)"
   xmlns:inkscape="http://www.inkscape.org/namespaces/inkscape"
   xmlns:sodipodi="http://sodipodi.sourceforge.net/DTD/sodipodi-0.dtd"
   xmlns="http://www.w3.org/2000/svg"
   xmlns:svg="http://www.w3.org/2000/svg"
   xmlns:rdf="http://www.w3.org/1999/02/22-rdf-syntax-ns#"
   xmlns:cc="http://creativecommons.org/ns#"
   xmlns:dc="http://purl.org/dc/elements/1.1/"><metadata
     id="metadata8"><rdf:RDF><cc:Work
         rdf:about=""><dc:format>image/svg+xml</dc:format><dc:type
           rdf:resource="http://purl.org/dc/dcmitype/StillImage" /></cc:Work></rdf:RDF></metadata><defs
     id="defs6"><clipPath
       clipPathUnits="userSpaceOnUse"
       id="clipPath18"><path
         d="M 0,697 H 1039 V 0 H 0 Z"
         id="path16" /></clipPath></defs><sodipodi:namedview
     pagecolor="#ffffff"
     bordercolor="#666666"
     borderopacity="1"
     objecttolerance="10"
     gridtolerance="10"
     guidetolerance="10"
     inkscape:pageopacity="0"
     inkscape:pageshadow="2"
     inkscape:window-width="1792"
     inkscape:window-height="1120"
     id="namedview4"
     inkscape:pagecheckerboard="0"
     showgrid="false"
     lock-margins="true"
     fit-margin-top="20"
     fit-margin-left="20"
     fit-margin-right="20"
     fit-margin-bottom="20"
     inkscape:zoom="0.7736729"
     inkscape:cx="277.89522"
     inkscape:cy="417.4891"
     inkscape:window-x="0"
     inkscape:window-y="0"
     inkscape:window-maximized="0"
     inkscape:current-layer="g14" /><g
     id="g10"
     inkscape:groupmode="layer"
     inkscape:label="Purple Booth Logo Colored"
     transform="matrix(1.3333333,0,0,-1.3333333,-282.63326,924.51551)"><g
       id="g12"><g
         id="g14"
         clip-path="url(#clipPath18)"><g
           id="g20"
           transform="translate(634.6698,327.3614)"><path
             d="m 0,0 c -8.915,-8.915 -23.368,-8.915 -32.283,0 l -94.966,94.966 c -8.915,8.914 -8.915,23.368 0,32.283 l 42.896,42.896 50.381,50.381 c 8.915,8.914 23.368,8.914 32.283,0 L 93.277,125.56 c 8.914,-8.915 8.914,-23.369 0,-32.283 z M 11.241,-72.968 166.245,82.036 c 14.814,14.814 14.814,38.832 0,53.647 L 23.715,278.213 45.703,300.2 c 11.626,11.627 11.626,30.478 0,42.105 -11.627,11.627 -30.478,11.627 -42.105,0 l -48.811,-48.811 -81.245,-81.245 -73.759,-73.759 c -14.814,-14.814 -14.814,-38.833 0,-53.647 L -42.406,-72.968 c 14.814,-14.814 38.833,-14.814 53.647,0"
             style="fill:#3f123f;fill-opacity:1;fill-rule:nonzero;stroke:none"
             id="path22" /></g><g
           id="g24"
           transform="translate(484.7232,327.3041)"><path
             d="m 0,0 c -8.915,-8.915 -23.368,-8.915 -32.283,0 l -94.966,94.966 c -8.915,8.915 -8.915,23.368 0,32.283 l 50.381,50.381 42.896,42.896 c 8.915,8.914 23.368,8.914 32.283,0 L 93.277,125.56 c 8.914,-8.915 8.914,-23.369 0,-32.283 z M 166.245,135.683 8.434,293.494 c -14.814,14.814 -38.833,14.814 -53.647,0 l -73.759,-73.76 -81.245,-81.244 -48.811,-48.812 c -11.627,-11.626 -11.627,-30.477 0,-42.104 11.627,-11.627 30.477,-11.627 42.104,0 l 21.988,21.988 142.53,-142.53 c 14.814,-14.814 38.833,-14.814 53.647,0 L 166.245,82.036 c 14.814,14.814 14.814,38.833 0,53.647"
             style="fill:#8e4088;fill-opacity:1;fill-rule:nonzero;stroke:none"
             id="path26" /></g><g
           id="g28"
           transform="translate(357.4743,454.553)"><path
             d="m 0,0 -57.687,-57.687 14.819,-14.819 c 0,0 36.126,66.561 42.868,72.506"
             style="fill:#702a6c;fill-opacity:1;fill-rule:nonzero;stroke:none"
             id="path30" /></g><g
           id="g32"
           transform="translate(658.3846,605.5739)"><path
             d="m 0,0 -60.586,-60.586 c 0,0 4.293,4.598 6.864,6.089 1.042,0.603 2.005,1.165 2.929,1.57 3.102,1.36 5.53,1.651 7.032,1.819 1.947,0.217 4.491,0.124 7.067,-0.41 1.893,-0.393 4.022,-1.204 5.791,-2.126 2.274,-1.186 3.637,-2.373 3.637,-2.373 0,0 23.159,47.516 27.266,56.017"
             style="fill:#250528;fill-opacity:1;fill-rule:nonzero;stroke:none"
             id="path34" /></g><g
           id="g36"
           transform="translate(583.3828,530.5904)"><path
             d="m 0,0 -41.546,-41.546 14.82,-14.856 z"
             style="fill:#702a6c;fill-opacity:1;fill-rule:nonzero;stroke:none"
             id="path38" /></g><g
           id="g40"
           transform="translate(585.6985,344.0631)"><path
             d="m 0,0 -41.546,-41.546 14.82,-14.856 z"
             style="fill:#250528;fill-opacity:1;fill-rule:nonzero;stroke:none"
             id="path42" /></g><g
           id="g44"
           transform="translate(538.4866,391.2615)"><path
             d="M 0,0 5.097,-5.097 -36.448,-46.642 Z"
             style="fill:#250528;fill-opacity:1;fill-rule:nonzero;stroke:none"
             id="path46" /></g><g
           id="g48"
           transform="translate(536.2076,577.8026)"><path
             d="M 0,0 5.097,-5.097 -36.449,-46.642 Z"
             style="fill:#702a6c;fill-opacity:1;fill-rule:nonzero;stroke:none"
             id="path50" /></g><g
           id="g52"
           transform="translate(536.7433,483.951)"><path
             d="M 0,0 -42.078,42.078 9.122,93.279 51.201,51.201 Z"
             style="fill:#3f123f;fill-opacity:1;fill-rule:nonzero;stroke:none"
             id="path54" /></g></g></g></g></svg>
