<?xml version="1.0" encoding="UTF-8" standalone="no"?>
<svg
        class="stroke-cyan-500 stroke-10"
   xmlns:dc="http://purl.org/dc/elements/1.1/"
   xmlns:cc="http://creativecommons.org/ns#"
   xmlns:rdf="http://www.w3.org/1999/02/22-rdf-syntax-ns#"
   xmlns:svg="http://www.w3.org/2000/svg"
   xmlns="http://www.w3.org/2000/svg"
   xmlns:sodipodi="http://sodipodi.sourceforge.net/DTD/sodipodi-0.dtd"
   xmlns:inkscape="http://www.inkscape.org/namespaces/inkscape"
   version="1.1"
   id="svg2"
   xml:space="preserve"
   width="1385.3333"
   height="929.33331"
   viewBox="0 0 1385.3333 929.33331"
   sodipodi:docname="Purple Booth Logo Colored.ai"><metadata
     id="metadata8"><rdf:RDF><cc:Work
         rdf:about=""><dc:format>image/svg+xml</dc:format><dc:type
           rdf:resource="http://purl.org/dc/dcmitype/StillImage" /></cc:Work></rdf:RDF></metadata><defs
     id="defs6"><clipPath
       clipPathUnits="userSpaceOnUse"
       id="clipPath18"><path
         d="M 0,697 H 1039 V 0 H 0 Z"
         id="path16" /></clipPath></defs><sodipodi:namedview
     pagecolor="#ffffff"
     bordercolor="#666666"
     borderopacity="1"
     objecttolerance="10"
     gridtolerance="10"
     guidetolerance="10"
     inkscape:pageopacity="0"
     inkscape:pageshadow="2"
     inkscape:window-width="640"
     inkscape:window-height="480"
     id="namedview4" /><g
     id="g10"
     inkscape:groupmode="layer"
     inkscape:label="Purple Booth Logo Colored"
     transform="matrix(1.3333333,0,0,-1.3333333,0,929.33333)"><g
       id="g12"><g
         id="g14"
         clip-path="url(#clipPath18)"><g
           id="g20"
           transform="translate(634.6698,327.3614)"><path
             d="m 0,0 c -8.915,-8.915 -23.368,-8.915 -32.283,0 l -94.966,94.966 c -8.915,8.914 -8.915,23.368 0,32.283 l 42.896,42.896 50.381,50.381 c 8.915,8.914 23.368,8.914 32.283,0 L 93.277,125.56 c 8.914,-8.915 8.914,-23.369 0,-32.283 z M 11.241,-72.968 166.245,82.036 c 14.814,14.814 14.814,38.832 0,53.647 L 23.715,278.213 45.703,300.2 c 11.626,11.627 11.626,30.478 0,42.105 -11.627,11.627 -30.478,11.627 -42.105,0 l -48.811,-48.811 -81.245,-81.245 -73.759,-73.759 c -14.814,-14.814 -14.814,-38.833 0,-53.647 L -42.406,-72.968 c 14.814,-14.814 38.833,-14.814 53.647,0"
             style="fill:#3f123f;fill-opacity:1;fill-rule:nonzero;stroke:none"
             id="path22" /></g><g
           id="g24"
           transform="translate(484.7232,327.3041)"><path
             d="m 0,0 c -8.915,-8.915 -23.368,-8.915 -32.283,0 l -94.966,94.966 c -8.915,8.915 -8.915,23.368 0,32.283 l 50.381,50.381 42.896,42.896 c 8.915,8.914 23.368,8.914 32.283,0 L 93.277,125.56 c 8.914,-8.915 8.914,-23.369 0,-32.283 z M 166.245,135.683 8.434,293.494 c -14.814,14.814 -38.833,14.814 -53.647,0 l -73.759,-73.76 -81.245,-81.244 -48.811,-48.812 c -11.627,-11.626 -11.627,-30.477 0,-42.104 11.627,-11.627 30.477,-11.627 42.104,0 l 21.988,21.988 142.53,-142.53 c 14.814,-14.814 38.833,-14.814 53.647,0 L 166.245,82.036 c 14.814,14.814 14.814,38.833 0,53.647"
             style="fill:#8e4088;fill-opacity:1;fill-rule:nonzero;stroke:none"
             id="path26" /></g><g
           id="g28"
           transform="translate(357.4743,454.553)"><path
             d="m 0,0 -57.687,-57.687 14.819,-14.819 c 0,0 36.126,66.561 42.868,72.506"
             style="fill:#702a6c;fill-opacity:1;fill-rule:nonzero;stroke:none"
             id="path30" /></g><g
           id="g32"
           transform="translate(658.3846,605.5739)"><path
             d="m 0,0 -60.586,-60.586 c 0,0 4.293,4.598 6.864,6.089 1.042,0.603 2.005,1.165 2.929,1.57 3.102,1.36 5.53,1.651 7.032,1.819 1.947,0.217 4.491,0.124 7.067,-0.41 1.893,-0.393 4.022,-1.204 5.791,-2.126 2.274,-1.186 3.637,-2.373 3.637,-2.373 0,0 23.159,47.516 27.266,56.017"
             style="fill:#250528;fill-opacity:1;fill-rule:nonzero;stroke:none"
             id="path34" /></g><g
           id="g36"
           transform="translate(583.3828,530.5904)"><path
             d="m 0,0 -41.546,-41.546 14.82,-14.856 z"
             style="fill:#702a6c;fill-opacity:1;fill-rule:nonzero;stroke:none"
             id="path38" /></g><g
           id="g40"
           transform="translate(585.6985,344.0631)"><path
             d="m 0,0 -41.546,-41.546 14.82,-14.856 z"
             style="fill:#250528;fill-opacity:1;fill-rule:nonzero;stroke:none"
             id="path42" /></g><g
           id="g44"
           transform="translate(538.4866,391.2615)"><path
             d="M 0,0 5.097,-5.097 -36.448,-46.642 Z"
             style="fill:#250528;fill-opacity:1;fill-rule:nonzero;stroke:none"
             id="path46" /></g><g
           id="g48"
           transform="translate(536.2076,577.8026)"><path
             d="M 0,0 5.097,-5.097 -36.449,-46.642 Z"
             style="fill:#702a6c;fill-opacity:1;fill-rule:nonzero;stroke:none"
             id="path50" /></g><g
           id="g52"
           transform="translate(536.7433,483.951)"><path
             d="M 0,0 -42.078,42.078 9.122,93.279 51.201,51.201 Z"
             style="fill:#3f123f;fill-opacity:1;fill-rule:nonzero;stroke:none"
             id="path54" /></g><g
           id="g56"
           transform="translate(111.0834,122.8402)"><path
             d="m 0,0 c 0,3.793 -0.67,6.918 -2.008,9.375 -1.34,2.455 -2.987,4.27 -4.94,5.442 -1.954,1.171 -4.005,1.911 -6.153,2.219 -2.149,0.305 -4.368,0.46 -6.655,0.46 h -9.376 v -36.75 h 9.878 c 3.516,0 6.459,0.471 8.832,1.422 2.371,0.949 4.311,2.273 5.818,3.976 1.507,1.703 2.65,3.738 3.432,6.112 C -0.391,-5.373 0,-2.793 0,0 m 23.022,1.589 c 0,-6.083 -0.95,-11.468 -2.846,-16.157 -1.899,-4.686 -4.66,-8.637 -8.288,-11.845 -3.629,-3.211 -8.079,-5.651 -13.352,-7.325 -5.275,-1.675 -11.484,-2.512 -18.627,-2.512 h -9.041 v -34.574 c 0,-0.558 -0.183,-1.061 -0.545,-1.507 -0.363,-0.448 -0.963,-0.809 -1.799,-1.088 -0.838,-0.281 -1.954,-0.503 -3.349,-0.67 -1.396,-0.167 -3.181,-0.251 -5.358,-0.251 -2.121,0 -3.893,0.084 -5.316,0.251 -1.423,0.167 -2.554,0.389 -3.39,0.67 -0.837,0.279 -1.423,0.64 -1.758,1.088 -0.335,0.446 -0.503,0.949 -0.503,1.507 V 26.62 c 0,2.624 0.683,4.591 2.051,5.903 1.368,1.31 3.167,1.967 5.4,1.967 h 25.533 c 2.567,0 5.008,-0.099 7.325,-0.293 2.316,-0.196 5.092,-0.615 8.33,-1.255 3.236,-0.643 6.515,-1.83 9.836,-3.558 3.321,-1.731 6.154,-3.922 8.497,-6.572 2.345,-2.651 4.131,-5.748 5.358,-9.292 1.228,-3.545 1.842,-7.521 1.842,-11.931"
             style="fill:#8e4088;fill-opacity:1;fill-rule:nonzero;stroke:none"
             id="path58" /></g><g
           id="g60"
           transform="translate(220.7515,51.8488)"><path
             d="m 0,0 c 0,-0.558 -0.141,-1.046 -0.42,-1.464 -0.279,-0.419 -0.767,-0.769 -1.464,-1.048 -0.699,-0.279 -1.62,-0.487 -2.762,-0.628 -1.145,-0.137 -2.584,-0.209 -4.312,-0.209 -1.843,0 -3.336,0.072 -4.479,0.209 -1.145,0.141 -2.052,0.349 -2.722,0.628 -0.668,0.279 -1.143,0.629 -1.422,1.048 -0.28,0.418 -0.418,0.906 -0.418,1.464 V 8.623 C -22.13,4.156 -26.33,0.809 -30.598,-1.422 c -4.27,-2.232 -8.694,-3.349 -13.269,-3.349 -5.136,0 -9.448,0.837 -12.935,2.51 -3.488,1.676 -6.306,3.964 -8.455,6.865 -2.149,2.901 -3.683,6.265 -4.604,10.089 -0.921,3.822 -1.382,8.58 -1.382,14.272 v 45.709 c 0,0.558 0.154,1.046 0.461,1.465 0.306,0.418 0.864,0.767 1.675,1.047 0.808,0.278 1.896,0.487 3.264,0.628 1.368,0.138 3.056,0.209 5.065,0.209 2.064,0 3.767,-0.071 5.107,-0.209 1.339,-0.141 2.413,-0.35 3.222,-0.628 0.809,-0.28 1.382,-0.629 1.717,-1.047 0.335,-0.419 0.502,-0.907 0.502,-1.465 V 32.481 c 0,-3.907 0.251,-6.892 0.754,-8.957 0.502,-2.066 1.268,-3.838 2.302,-5.316 1.032,-1.479 2.344,-2.623 3.935,-3.433 1.591,-0.809 3.444,-1.213 5.567,-1.213 2.679,0 5.371,0.977 8.078,2.931 2.706,1.952 5.594,4.798 8.664,8.538 v 49.643 c 0,0.558 0.153,1.046 0.461,1.465 0.306,0.418 0.864,0.767 1.674,1.047 0.809,0.278 1.884,0.487 3.223,0.628 1.34,0.138 3.041,0.209 5.107,0.209 2.065,0 3.767,-0.071 5.107,-0.209 1.339,-0.141 2.398,-0.35 3.18,-0.628 0.782,-0.28 1.34,-0.629 1.675,-1.047 C -0.169,75.72 0,75.232 0,74.674 Z"
             style="fill:#8e4088;fill-opacity:1;fill-rule:nonzero;stroke:none"
             id="path62" /></g><g
           id="g64"
           transform="translate(289.899,119.5741)"><path
             d="M 0,0 C 0,-2.009 -0.057,-3.655 -0.169,-4.938 -0.281,-6.222 -0.448,-7.228 -0.67,-7.953 -0.894,-8.678 -1.187,-9.18 -1.549,-9.459 -1.912,-9.74 -2.373,-9.878 -2.93,-9.878 c -0.448,0 -0.951,0.098 -1.507,0.294 -0.559,0.194 -1.187,0.404 -1.884,0.627 -0.698,0.223 -1.465,0.432 -2.302,0.628 -0.838,0.195 -1.757,0.293 -2.763,0.293 -1.172,0 -2.343,-0.238 -3.516,-0.711 -1.172,-0.476 -2.385,-1.215 -3.642,-2.219 -1.255,-1.005 -2.567,-2.345 -3.934,-4.018 -1.367,-1.674 -2.833,-3.74 -4.395,-6.195 v -46.546 c 0,-0.558 -0.167,-1.046 -0.503,-1.465 -0.334,-0.418 -0.906,-0.768 -1.716,-1.047 -0.809,-0.279 -1.882,-0.487 -3.222,-0.628 -1.339,-0.138 -3.042,-0.209 -5.107,-0.209 -2.066,0 -3.767,0.071 -5.106,0.209 -1.34,0.141 -2.415,0.349 -3.224,0.628 -0.81,0.279 -1.38,0.629 -1.716,1.047 -0.334,0.419 -0.503,0.907 -0.503,1.465 V 6.949 c 0,0.558 0.14,1.046 0.419,1.464 0.279,0.419 0.781,0.767 1.508,1.048 0.725,0.277 1.659,0.486 2.804,0.628 1.143,0.137 2.58,0.209 4.312,0.209 1.785,0 3.264,-0.072 4.435,-0.209 1.173,-0.142 2.079,-0.351 2.721,-0.628 0.641,-0.281 1.101,-0.629 1.382,-1.048 0.279,-0.418 0.418,-0.906 0.418,-1.464 v -9.292 c 1.953,2.789 3.795,5.092 5.526,6.906 1.728,1.814 3.376,3.25 4.939,4.311 1.562,1.061 3.125,1.8 4.689,2.218 1.561,0.419 3.125,0.628 4.686,0.628 0.725,0 1.508,-0.041 2.345,-0.125 0.837,-0.084 1.701,-0.224 2.595,-0.418 0.892,-0.196 1.675,-0.419 2.345,-0.67 0.67,-0.251 1.156,-0.517 1.464,-0.796 0.307,-0.279 0.531,-0.586 0.67,-0.92 C -0.574,8.456 -0.448,7.995 -0.336,7.41 -0.224,6.822 -0.141,5.944 -0.084,4.773 -0.029,3.6 0,2.009 0,0"
             style="fill:#8e4088;fill-opacity:1;fill-rule:nonzero;stroke:none"
             id="path66" /></g><g
           id="g68"
           transform="translate(356.1178,88.7667)"><path
             d="m 0,0 c 0,3.182 -0.238,6.237 -0.712,9.167 -0.475,2.931 -1.284,5.539 -2.428,7.828 -1.145,2.287 -2.651,4.115 -4.519,5.483 -1.872,1.367 -4.2,2.052 -6.991,2.052 -1.397,0 -2.777,-0.209 -4.144,-0.629 -1.369,-0.419 -2.763,-1.102 -4.185,-2.05 -1.424,-0.951 -2.889,-2.177 -4.395,-3.685 -1.508,-1.506 -3.098,-3.376 -4.773,-5.608 v -24.612 c 2.958,-3.74 5.777,-6.628 8.456,-8.665 2.679,-2.038 5.468,-3.055 8.371,-3.055 2.734,0 5.064,0.697 6.991,2.092 1.925,1.395 3.501,3.224 4.729,5.484 1.227,2.26 2.136,4.814 2.721,7.66 C -0.294,-5.692 0,-2.846 0,0 m 21.933,1.508 c 0,-6.642 -0.711,-12.628 -2.134,-17.957 -1.424,-5.33 -3.504,-9.866 -6.237,-13.604 -2.736,-3.74 -6.139,-6.614 -10.213,-8.623 -4.076,-2.009 -8.736,-3.013 -13.981,-3.013 -2.176,0 -4.172,0.209 -5.986,0.628 -1.814,0.418 -3.572,1.06 -5.273,1.925 -1.703,0.864 -3.391,1.939 -5.065,3.224 -1.675,1.282 -3.405,2.789 -5.191,4.519 v -35.16 c 0,-0.558 -0.167,-1.059 -0.503,-1.506 -0.334,-0.446 -0.906,-0.824 -1.715,-1.131 -0.81,-0.306 -1.883,-0.545 -3.223,-0.712 -1.339,-0.167 -3.042,-0.251 -5.106,-0.251 -2.066,0 -3.768,0.084 -5.107,0.251 -1.34,0.167 -2.415,0.406 -3.224,0.712 -0.809,0.307 -1.38,0.685 -1.716,1.131 -0.334,0.447 -0.503,0.948 -0.503,1.506 V 37.756 c 0,0.558 0.14,1.046 0.419,1.465 0.279,0.418 0.767,0.767 1.466,1.047 0.697,0.278 1.618,0.487 2.762,0.628 1.143,0.138 2.581,0.209 4.312,0.209 1.673,0 3.083,-0.071 4.227,-0.209 1.144,-0.141 2.065,-0.35 2.762,-0.628 0.698,-0.28 1.186,-0.629 1.466,-1.047 0.279,-0.419 0.419,-0.907 0.419,-1.465 v -8.789 c 2.176,2.231 4.31,4.198 6.404,5.901 2.092,1.701 4.227,3.125 6.404,4.27 2.176,1.143 4.422,1.995 6.74,2.553 2.314,0.557 4.784,0.836 7.407,0.836 5.469,0 10.13,-1.075 13.981,-3.222 3.852,-2.149 6.99,-5.094 9.417,-8.832 2.428,-3.739 4.201,-8.094 5.316,-13.059 1.116,-4.969 1.675,-10.27 1.675,-15.906"
             style="fill:#8e4088;fill-opacity:1;fill-rule:nonzero;stroke:none"
             id="path70" /></g><g
           id="g72"
           transform="translate(415.9747,51.8488)"><path
             d="m 0,0 c 0,-0.558 -0.167,-1.046 -0.503,-1.464 -0.334,-0.419 -0.906,-0.769 -1.716,-1.048 -0.809,-0.279 -1.882,-0.487 -3.222,-0.628 -1.339,-0.137 -3.042,-0.209 -5.107,-0.209 -2.066,0 -3.767,0.072 -5.106,0.209 -1.34,0.141 -2.415,0.349 -3.224,0.628 -0.809,0.279 -1.38,0.629 -1.716,1.048 -0.334,0.418 -0.503,0.906 -0.503,1.464 v 110.086 c 0,0.558 0.169,1.059 0.503,1.506 0.336,0.446 0.907,0.824 1.716,1.131 0.809,0.306 1.884,0.544 3.224,0.711 1.339,0.168 3.04,0.252 5.106,0.252 2.065,0 3.768,-0.084 5.107,-0.252 1.34,-0.167 2.413,-0.405 3.222,-0.711 0.81,-0.307 1.382,-0.685 1.716,-1.131 C -0.167,111.145 0,110.644 0,110.086 Z"
             style="fill:#8e4088;fill-opacity:1;fill-rule:nonzero;stroke:none"
             id="path74" /></g><g
           id="g76"
           transform="translate(485.5422,97.3893)"><path
             d="m 0,0 c 0.167,5.916 -1.018,10.562 -3.558,13.94 -2.54,3.375 -6.461,5.065 -11.762,5.065 -2.679,0 -5.01,-0.503 -6.99,-1.509 -1.981,-1.003 -3.629,-2.357 -4.939,-4.059 C -28.561,11.735 -29.565,9.725 -30.262,7.41 -30.961,5.094 -31.365,2.624 -31.477,0 Z m 20.427,-6.026 c 0,-2.569 -0.573,-4.466 -1.716,-5.694 -1.145,-1.228 -2.721,-1.841 -4.73,-1.841 h -45.458 c 0,-3.181 0.378,-6.07 1.13,-8.664 0.754,-2.595 1.953,-4.801 3.6,-6.614 1.646,-1.814 3.768,-3.196 6.362,-4.145 2.595,-0.948 5.707,-1.422 9.335,-1.422 3.683,0 6.92,0.264 9.71,0.795 2.791,0.53 5.205,1.115 7.241,1.758 2.037,0.642 3.727,1.227 5.067,1.758 1.339,0.53 2.427,0.796 3.264,0.796 0.503,0 0.921,-0.099 1.255,-0.294 0.336,-0.196 0.613,-0.543 0.837,-1.046 0.222,-0.502 0.378,-1.214 0.461,-2.136 0.084,-0.919 0.126,-2.079 0.126,-3.473 0,-1.228 -0.029,-2.274 -0.084,-3.14 -0.057,-0.866 -0.14,-1.604 -0.252,-2.218 -0.112,-0.615 -0.279,-1.131 -0.501,-1.549 -0.224,-0.418 -0.517,-0.824 -0.88,-1.213 -0.364,-0.391 -1.353,-0.921 -2.971,-1.591 -1.62,-0.67 -3.683,-1.326 -6.195,-1.967 -2.512,-0.641 -5.387,-1.2 -8.623,-1.675 -3.238,-0.474 -6.697,-0.711 -10.38,-0.711 -6.643,0 -12.461,0.837 -17.455,2.511 -4.996,1.675 -9.167,4.213 -12.516,7.619 -3.349,3.404 -5.846,7.701 -7.492,12.892 -1.648,5.19 -2.47,11.272 -2.47,18.249 0,6.641 0.864,12.627 2.595,17.957 1.73,5.329 4.241,9.85 7.534,13.562 3.292,3.711 7.296,6.544 12.014,8.498 4.716,1.953 10.032,2.929 15.948,2.929 6.25,0 11.595,-0.92 16.032,-2.762 4.437,-1.842 8.077,-4.395 10.923,-7.661 2.846,-3.264 4.94,-7.129 6.28,-11.593 1.339,-4.466 2.009,-9.322 2.009,-14.566 z"
             style="fill:#8e4088;fill-opacity:1;fill-rule:nonzero;stroke:none"
             id="path78" /></g><g
           id="g80"
           transform="translate(580.1407,80.7312)"><path
             d="m 0,0 c 0,2.51 -0.418,4.756 -1.257,6.738 -0.837,1.98 -2.064,3.642 -3.683,4.982 -1.62,1.34 -3.683,2.371 -6.195,3.097 -2.512,0.725 -5.776,1.089 -9.795,1.089 h -13.059 v -30.808 h 15.905 c 3.07,0 5.652,0.321 7.744,0.964 2.094,0.64 3.907,1.589 5.442,2.846 1.535,1.255 2.735,2.816 3.601,4.688 C -0.433,-4.536 0,-2.4 0,0 m -5.609,46.377 c 0,2.177 -0.335,4.131 -1.004,5.861 -0.67,1.729 -1.676,3.167 -3.015,4.311 -1.34,1.143 -3.028,2.022 -5.065,2.636 -2.038,0.615 -4.758,0.922 -8.162,0.922 H -33.989 V 31.978 h 12.307 c 3.18,0 5.72,0.378 7.617,1.131 1.897,0.754 3.474,1.785 4.73,3.097 1.256,1.31 2.19,2.846 2.804,4.604 0.613,1.758 0.922,3.613 0.922,5.567 M 22.853,0.752 c 0,-3.849 -0.53,-7.338 -1.589,-10.463 -1.063,-3.126 -2.527,-5.89 -4.397,-8.288 -1.87,-2.4 -4.101,-4.466 -6.696,-6.195 -2.596,-1.73 -5.457,-3.154 -8.582,-4.27 -3.125,-1.117 -6.459,-1.94 -10.002,-2.47 -3.545,-0.53 -7.494,-0.795 -11.847,-0.795 h -28.798 c -1.841,0 -3.389,0.545 -4.646,1.634 -1.255,1.088 -1.883,2.859 -1.883,5.315 v 94.43 c 0,2.456 0.628,4.228 1.883,5.316 1.257,1.088 2.805,1.633 4.646,1.633 h 27.207 c 6.641,0 12.265,-0.559 16.869,-1.675 4.604,-1.116 8.483,-2.804 11.637,-5.065 3.153,-2.26 5.566,-5.121 7.241,-8.58 1.674,-3.461 2.512,-7.534 2.512,-12.223 0,-2.624 -0.335,-5.093 -1.005,-7.408 -0.67,-2.317 -1.646,-4.424 -2.931,-6.321 C 11.188,33.43 9.612,31.754 7.744,30.305 5.872,28.853 3.738,27.681 1.339,26.789 c 3.069,-0.56 5.902,-1.536 8.497,-2.931 2.596,-1.396 4.855,-3.196 6.781,-5.4 1.925,-2.205 3.445,-4.785 4.562,-7.743 1.116,-2.958 1.674,-6.278 1.674,-9.963"
             style="fill:#3f123f;fill-opacity:1;fill-rule:nonzero;stroke:none"
             id="path82" /></g><g
           id="g84"
           transform="translate(673.231,89.1024)"><path
             d="m 0,0 c 0,3.683 -0.292,7.074 -0.879,10.171 -0.585,3.098 -1.578,5.79 -2.971,8.078 -1.396,2.288 -3.253,4.074 -5.567,5.358 -2.318,1.284 -5.233,1.927 -8.749,1.927 -3.125,0 -5.859,-0.574 -8.204,-1.718 -2.344,-1.143 -4.269,-2.818 -5.777,-5.022 -1.506,-2.206 -2.637,-4.856 -3.389,-7.953 -0.754,-3.097 -1.131,-6.628 -1.131,-10.59 0,-3.684 0.307,-7.073 0.922,-10.171 0.613,-3.097 1.603,-5.791 2.971,-8.079 1.367,-2.288 3.223,-4.059 5.567,-5.316 2.345,-1.255 5.246,-1.883 8.707,-1.883 3.18,0 5.943,0.571 8.287,1.716 2.345,1.143 4.269,2.804 5.776,4.98 1.508,2.178 2.624,4.815 3.349,7.912 C -0.363,-7.492 0,-3.963 0,0 m 21.682,0.837 c 0,-6.362 -0.837,-12.168 -2.51,-17.412 -1.675,-5.247 -4.215,-9.768 -7.619,-13.563 -3.404,-3.796 -7.674,-6.725 -12.808,-8.789 -5.136,-2.065 -11.135,-3.098 -17.999,-3.098 -6.643,0 -12.419,0.921 -17.33,2.762 -4.91,1.842 -8.986,4.521 -12.221,8.037 -3.239,3.516 -5.639,7.841 -7.2,12.975 -1.564,5.135 -2.344,10.996 -2.344,17.581 0,6.362 0.85,12.181 2.553,17.455 1.703,5.273 4.255,9.795 7.661,13.562 3.402,3.767 7.659,6.683 12.766,8.747 5.106,2.065 11.092,3.098 17.957,3.098 6.697,0 12.502,-0.907 17.412,-2.72 C 4.911,37.657 8.971,34.993 12.181,31.477 15.39,27.961 17.775,23.635 19.339,18.5 20.9,13.366 21.682,7.478 21.682,0.837"
             style="fill:#3f123f;fill-opacity:1;fill-rule:nonzero;stroke:none"
             id="path86" /></g><g
           id="g88"
           transform="translate(765.4019,89.1024)"><path
             d="m 0,0 c 0,3.683 -0.292,7.074 -0.879,10.171 -0.585,3.098 -1.578,5.79 -2.971,8.078 -1.396,2.288 -3.253,4.074 -5.567,5.358 -2.318,1.284 -5.233,1.927 -8.749,1.927 -3.125,0 -5.859,-0.574 -8.204,-1.718 -2.344,-1.143 -4.269,-2.818 -5.777,-5.022 -1.507,-2.206 -2.637,-4.856 -3.389,-7.953 -0.754,-3.097 -1.131,-6.628 -1.131,-10.59 0,-3.684 0.307,-7.073 0.922,-10.171 0.612,-3.097 1.603,-5.791 2.97,-8.079 1.368,-2.288 3.224,-4.059 5.568,-5.316 2.345,-1.255 5.246,-1.883 8.707,-1.883 3.18,0 5.943,0.571 8.286,1.716 2.345,1.143 4.27,2.804 5.777,4.98 1.508,2.178 2.624,4.815 3.349,7.912 C -0.363,-7.492 0,-3.963 0,0 m 21.682,0.837 c 0,-6.362 -0.837,-12.168 -2.51,-17.412 -1.676,-5.247 -4.215,-9.768 -7.619,-13.563 -3.404,-3.796 -7.674,-6.725 -12.808,-8.789 -5.136,-2.065 -11.135,-3.098 -17.999,-3.098 -6.643,0 -12.419,0.921 -17.33,2.762 -4.91,1.842 -8.986,4.521 -12.221,8.037 -3.239,3.516 -5.639,7.841 -7.2,12.975 -1.564,5.135 -2.344,10.996 -2.344,17.581 0,6.362 0.85,12.181 2.553,17.455 1.703,5.273 4.255,9.795 7.661,13.562 3.402,3.767 7.659,6.683 12.766,8.747 5.106,2.065 11.092,3.098 17.957,3.098 6.697,0 12.501,-0.907 17.412,-2.72 C 4.91,37.657 8.971,34.993 12.181,31.477 15.39,27.961 17.775,23.635 19.339,18.5 20.9,13.366 21.682,7.478 21.682,0.837"
             style="fill:#3f123f;fill-opacity:1;fill-rule:nonzero;stroke:none"
             id="path90" /></g><g
           id="g92"
           transform="translate(847.9446,59.2162)"><path
             d="m 0,0 c 0,-2.457 -0.154,-4.34 -0.461,-5.652 -0.308,-1.312 -0.711,-2.231 -1.214,-2.761 -0.501,-0.532 -1.242,-1.006 -2.219,-1.424 -0.976,-0.419 -2.121,-0.78 -3.431,-1.088 -1.312,-0.307 -2.736,-0.544 -4.27,-0.712 -1.536,-0.167 -3.085,-0.25 -4.646,-0.25 -4.186,0 -7.814,0.53 -10.884,1.589 -3.069,1.061 -5.607,2.692 -7.617,4.898 -2.009,2.204 -3.49,4.982 -4.437,8.33 -0.95,3.349 -1.423,7.311 -1.423,11.887 v 38.258 h -8.957 c -1.062,0 -1.872,0.655 -2.428,1.967 -0.559,1.312 -0.838,3.503 -0.838,6.573 0,1.617 0.07,2.984 0.209,4.101 0.139,1.116 0.349,1.995 0.629,2.637 0.278,0.64 0.628,1.101 1.046,1.382 0.419,0.279 0.907,0.418 1.465,0.418 h 8.874 v 16.66 c 0,0.556 0.152,1.059 0.46,1.506 0.307,0.446 0.864,0.822 1.674,1.131 0.809,0.306 1.897,0.53 3.266,0.669 1.367,0.138 3.055,0.21 5.064,0.21 2.065,0 3.781,-0.072 5.149,-0.21 1.366,-0.139 2.441,-0.363 3.223,-0.669 0.781,-0.309 1.339,-0.685 1.673,-1.131 0.336,-0.447 0.503,-0.95 0.503,-1.506 v -16.66 h 16.241 c 0.556,0 1.046,-0.139 1.465,-0.418 0.418,-0.281 0.767,-0.742 1.047,-1.382 0.277,-0.642 0.487,-1.521 0.628,-2.637 C -0.071,64.599 0,63.232 0,61.615 0,58.545 -0.281,56.354 -0.837,55.042 -1.396,53.73 -2.206,53.075 -3.266,53.075 H -19.59 V 17.999 c 0,-4.075 0.64,-7.13 1.926,-9.167 1.283,-2.039 3.571,-3.056 6.865,-3.056 1.116,0 2.12,0.096 3.013,0.292 0.892,0.197 1.687,0.42 2.386,0.67 0.697,0.252 1.283,0.474 1.758,0.67 0.473,0.196 0.906,0.293 1.297,0.293 0.336,0 0.655,-0.097 0.963,-0.293 C -1.075,7.212 -0.837,6.822 -0.67,6.237 -0.503,5.65 -0.35,4.855 -0.209,3.85 -0.071,2.846 0,1.562 0,0"
             style="fill:#3f123f;fill-opacity:1;fill-rule:nonzero;stroke:none"
             id="path94" /></g><g
           id="g96"
           transform="translate(934.506,51.8488)"><path
             d="m 0,0 c 0,-0.558 -0.167,-1.046 -0.501,-1.464 -0.336,-0.419 -0.894,-0.769 -1.675,-1.048 -0.782,-0.279 -1.856,-0.487 -3.223,-0.628 -1.368,-0.137 -3.057,-0.209 -5.064,-0.209 -2.066,0 -3.782,0.072 -5.149,0.209 -1.369,0.141 -2.442,0.349 -3.224,0.628 -0.782,0.279 -1.34,0.629 -1.674,1.048 -0.335,0.418 -0.502,0.906 -0.502,1.464 v 42.612 c 0,3.626 -0.266,6.474 -0.795,8.538 -0.532,2.064 -1.297,3.837 -2.303,5.316 -1.004,1.479 -2.301,2.622 -3.892,3.433 -1.591,0.808 -3.448,1.213 -5.567,1.213 -2.679,0 -5.387,-0.976 -8.12,-2.93 -2.736,-1.955 -5.582,-4.801 -8.54,-8.539 V 0 c 0,-0.558 -0.167,-1.046 -0.503,-1.464 -0.334,-0.419 -0.906,-0.769 -1.715,-1.048 -0.81,-0.279 -1.883,-0.487 -3.223,-0.628 -1.339,-0.137 -3.042,-0.209 -5.106,-0.209 -2.066,0 -3.768,0.072 -5.107,0.209 -1.34,0.141 -2.415,0.349 -3.224,0.628 -0.809,0.279 -1.38,0.629 -1.716,1.048 -0.334,0.418 -0.503,0.906 -0.503,1.464 v 110.086 c 0,0.558 0.169,1.059 0.503,1.506 0.336,0.446 0.907,0.824 1.716,1.131 0.809,0.306 1.884,0.544 3.224,0.711 1.339,0.168 3.041,0.252 5.107,0.252 2.064,0 3.767,-0.084 5.106,-0.252 1.34,-0.167 2.413,-0.405 3.223,-0.711 0.809,-0.307 1.381,-0.685 1.715,-1.131 0.336,-0.447 0.503,-0.948 0.503,-1.506 V 68.813 c 3.628,3.571 7.325,6.238 11.093,7.995 3.767,1.758 7.686,2.637 11.762,2.637 5.077,0 9.362,-0.836 12.85,-2.51 3.487,-1.675 6.305,-3.963 8.456,-6.865 2.147,-2.903 3.695,-6.294 4.646,-10.171 C -0.475,56.018 0,51.317 0,45.792 Z"
             style="fill:#3f123f;fill-opacity:1;fill-rule:nonzero;stroke:none"
             id="path98" /></g><g
           id="g100"
           transform="translate(975.944,66.6108)"><path
             d="m 0,0 c 0.508,0 0.936,-0.02 1.281,-0.063 0.348,-0.042 0.636,-0.106 0.864,-0.19 0.229,-0.085 0.395,-0.191 0.496,-0.318 0.102,-0.126 0.152,-0.275 0.152,-0.445 v -15.058 c 0,-0.559 -0.165,-1.028 -0.496,-1.409 -0.329,-0.382 -0.867,-0.572 -1.612,-0.572 h -29.838 c -0.169,0 -0.321,0.054 -0.457,0.165 -0.135,0.11 -0.245,0.292 -0.33,0.546 -0.084,0.254 -0.152,0.598 -0.203,1.029 -0.052,0.432 -0.076,0.969 -0.076,1.613 0,0.659 0.024,1.201 0.076,1.624 0.051,0.424 0.119,0.762 0.203,1.016 0.085,0.254 0.195,0.436 0.33,0.546 0.136,0.111 0.288,0.165 0.457,0.165 h 26.436 v 10.335 c 0,0.17 0.046,0.319 0.139,0.445 0.094,0.127 0.245,0.233 0.458,0.318 0.211,0.084 0.49,0.148 0.837,0.19 C -0.936,-0.02 -0.508,0 0,0"
             style="fill:#3f123f;fill-opacity:1;fill-rule:nonzero;stroke:none"
             id="path102" /></g><g
           id="g104"
           transform="translate(948.6188,88.6017)"><path
             d="m 0,0 c 0.492,0 0.911,-0.02 1.258,-0.063 0.346,-0.042 0.627,-0.106 0.838,-0.19 0.211,-0.085 0.368,-0.191 0.47,-0.318 0.1,-0.126 0.152,-0.267 0.152,-0.419 v -8.227 h 26.486 c 0.169,0 0.322,-0.056 0.457,-0.166 0.136,-0.11 0.246,-0.291 0.331,-0.546 0.084,-0.253 0.152,-0.597 0.203,-1.028 0.05,-0.432 0.076,-0.97 0.076,-1.613 0,-0.642 -0.026,-1.18 -0.076,-1.612 -0.051,-0.432 -0.119,-0.775 -0.203,-1.028 -0.085,-0.255 -0.195,-0.436 -0.331,-0.546 -0.135,-0.111 -0.288,-0.165 -0.457,-0.165 H 2.718 v -8.228 c 0,-0.169 -0.052,-0.314 -0.152,-0.432 C 2.464,-24.7 2.307,-24.802 2.096,-24.886 1.885,-24.971 1.604,-25.035 1.258,-25.077 0.911,-25.119 0.492,-25.139 0,-25.139 c -0.507,0 -0.938,0.02 -1.295,0.062 -0.356,0.042 -0.639,0.106 -0.85,0.191 -0.211,0.084 -0.364,0.186 -0.457,0.305 -0.093,0.118 -0.139,0.263 -0.139,0.432 V -0.99 c 0,0.152 0.046,0.293 0.139,0.419 0.093,0.127 0.246,0.233 0.457,0.318 0.211,0.084 0.494,0.148 0.85,0.19 C -0.938,-0.02 -0.507,0 0,0"
             style="fill:#3f123f;fill-opacity:1;fill-rule:nonzero;stroke:none"
             id="path106" /></g><g
           id="g108"
           transform="translate(962.0533,112.8804)"><path
             d="M 0,0 C -1.558,0 -3.006,-0.182 -4.343,-0.546 -5.68,-0.91 -6.839,-1.494 -7.821,-2.299 -8.803,-3.102 -9.57,-4.136 -10.12,-5.397 c -0.55,-1.261 -0.825,-2.916 -0.825,-4.964 v -3.377 h 22.346 v 3.478 c 0,1.829 -0.237,3.369 -0.711,4.622 -0.474,1.253 -1.189,2.299 -2.145,3.136 -0.957,0.839 -2.146,1.464 -3.568,1.88 C 3.554,-0.207 1.896,0 0,0 m -0.229,6.907 c 3.014,0 5.592,-0.393 7.733,-1.18 2.142,-0.788 3.889,-1.918 5.244,-3.391 1.354,-1.473 2.349,-3.263 2.984,-5.37 0.634,-2.108 0.952,-4.618 0.952,-7.53 v -7.847 c 0,-0.559 -0.165,-1.028 -0.496,-1.409 -0.329,-0.381 -0.867,-0.572 -1.612,-0.572 h -28.645 c -0.745,0 -1.282,0.191 -1.613,0.572 -0.329,0.381 -0.494,0.85 -0.494,1.409 v 8.431 c 0,2.928 0.342,5.412 1.028,7.454 0.685,2.038 1.701,3.757 3.047,5.154 1.347,1.396 3.009,2.458 4.991,3.187 1.98,0.727 4.275,1.092 6.881,1.092"
             style="fill:#3f123f;fill-opacity:1;fill-rule:nonzero;stroke:none"
             id="path110" /></g><g
           id="g112"
           transform="translate(975.0806,131.2651)"><path
             d="m 0,0 c 1.574,0 2.632,-0.275 3.174,-0.825 0.541,-0.55 0.812,-1.536 0.812,-2.958 0,-1.423 -0.265,-2.405 -0.799,-2.946 -0.534,-0.542 -1.545,-0.813 -3.034,-0.813 -1.592,0 -2.659,0.275 -3.201,0.825 -0.542,0.551 -0.813,1.545 -0.813,2.984 0,1.406 0.267,2.378 0.801,2.92 C -2.528,-0.271 -1.506,0 0,0"
             style="fill:#3f123f;fill-opacity:1;fill-rule:nonzero;stroke:none"
             id="path114" /></g></g></g></g></svg>
